<svg width="23" height="23" viewBox="0 0 23 23" fill="none" xmlns="http://www.w3.org/2000/svg">
<path fill-rule="evenodd" clip-rule="evenodd" d="M7.83667 0H16.0867C19.883 0 22.9617 3.14399 22.9617 7.02096V15.4461C22.9617 19.3231 19.883 22.4671 16.0867 22.4671H7.83667C4.04029 22.4671 0.96167 19.3231 0.96167 15.4461V7.02096C0.96167 3.14399 4.04029 0 7.83667 0ZM16.0867 20.3608C18.7404 20.3608 20.8992 18.1562 20.8992 15.4461V7.02099C20.8992 4.3109 18.7404 2.10632 16.0867 2.10632H7.83667C5.18292 2.10632 3.02417 4.3109 3.02417 7.02099V15.4461C3.02417 18.1562 5.18292 20.3608 7.83667 20.3608H16.0867Z" fill="white"/>
<path fill-rule="evenodd" clip-rule="evenodd" d="M6.46167 11.2336C6.46167 8.13173 8.92429 5.61682 11.9617 5.61682C14.999 5.61682 17.4617 8.13173 17.4617 11.2336C17.4617 14.3354 14.999 16.8504 11.9617 16.8504C8.92429 16.8504 6.46167 14.3354 6.46167 11.2336ZM8.52417 11.2335C8.52417 13.1685 10.0669 14.744 11.9617 14.744C13.8564 14.744 15.3992 13.1685 15.3992 11.2335C15.3992 9.29712 13.8564 7.72302 11.9617 7.72302C10.0669 7.72302 8.52417 9.29712 8.52417 11.2335Z" fill="white"/>
<ellipse cx="17.8742" cy="5.19552" rx="0.732875" ry="0.748434" fill="white"/>
</svg>
