<svg width="23" height="19" viewBox="0 0 23 19" fill="none" xmlns="http://www.w3.org/2000/svg">
<path d="M22.9617 2.20347C22.1435 2.56997 21.2718 2.81289 20.3629 2.93084C21.2979 2.36074 22.0115 1.46487 22.347 0.385042C21.4753 0.915827 20.5128 1.29075 19.487 1.49997C18.6593 0.599884 17.4795 0.0424194 16.1925 0.0424194C13.6955 0.0424194 11.6853 2.1122 11.6853 4.64957C11.6853 5.01466 11.7155 5.36571 11.7898 5.69991C8.04017 5.51315 4.72229 3.67787 2.49342 0.882126C2.10429 1.57158 1.87604 2.36074 1.87604 3.21028C1.87604 4.80544 2.68042 6.21946 3.87942 7.0381C3.15479 7.02406 2.44392 6.80922 1.84167 6.47081C1.84167 6.48485 1.84167 6.50311 1.84167 6.52136C1.84167 8.75964 3.40505 10.6188 5.45517 11.0471C5.08805 11.1496 4.68792 11.1987 4.27267 11.1987C3.98392 11.1987 3.69242 11.1819 3.41879 11.1201C4.00317 12.9441 5.66142 14.2851 7.63317 14.3287C6.09867 15.5545 4.1503 16.2931 2.04104 16.2931C1.67117 16.2931 1.31642 16.2763 0.96167 16.2299C2.95954 17.5457 5.3273 18.2969 7.88067 18.2969C16.1802 18.2969 20.7177 11.276 20.7177 5.19019C20.7177 4.98658 20.7108 4.78999 20.7012 4.59481C21.5963 3.94607 22.3484 3.13585 22.9617 2.20347Z" fill="white"/>
</svg>
